<?xml version="1.0" standalone="no"?>
<!DOCTYPE svg PUBLIC "-//W3C//DTD SVG 20010904//EN"
 "http://www.w3.org/TR/2001/REC-SVG-20010904/DTD/svg10.dtd">
<svg version="1.0" xmlns="http://www.w3.org/2000/svg"
 width="652.000000pt" height="750.000000pt" viewBox="0 0 652.000000 750.000000"
 preserveAspectRatio="xMidYMid meet">

<g transform="translate(0.000000,750.000000) scale(0.100000,-0.100000)"
fill="#000000" stroke="none">
<path d="M0 3750 l0 -3750 3260 0 3260 0 0 3750 0 3750 -3260 0 -3260 0 0
-3750z m3133 2513 c71 -71 112 -131 178 -265 28 -56 66 -117 84 -133 l33 -31
18 30 c50 86 145 161 300 239 320 162 741 181 997 45 66 -36 173 -128 228
-197 48 -61 111 -171 142 -249 14 -34 42 -81 61 -103 42 -50 107 -171 134
-254 35 -103 52 -231 52 -387 0 -412 -129 -810 -363 -1123 l-45 -60 32 -45
c85 -117 133 -239 161 -409 35 -210 4 -551 -69 -759 -65 -186 -154 -354 -269
-507 -78 -103 -247 -270 -339 -336 -204 -143 -424 -215 -606 -198 -209 21
-345 88 -401 197 -18 35 -24 39 -85 51 -91 18 -177 62 -241 122 -74 70 -90
119 -81 253 3 56 9 119 12 141 5 32 -5 17 -51 -75 -97 -196 -195 -332 -337
-468 -127 -122 -255 -200 -401 -243 -135 -40 -221 -13 -319 101 -36 42 -49 50
-78 50 -47 1 -138 39 -189 81 -58 47 -155 177 -200 268 -55 108 -131 348 -131
410 0 5 35 21 78 36 115 42 291 126 363 175 203 138 321 365 274 527 -15 51
-26 66 -108 142 -301 284 -356 359 -414 572 -28 100 -25 352 5 487 35 156 84
289 177 477 189 382 479 755 861 1107 218 200 444 387 469 388 6 0 37 -26 68
-57z"/>
<path d="M2990 6082 c-187 -140 -421 -359 -611 -572 -331 -372 -576 -792 -667
-1144 -23 -89 -26 -121 -27 -271 0 -185 7 -227 57 -329 40 -84 84 -139 180
-230 233 -223 248 -238 277 -300 39 -80 46 -142 27 -238 -55 -286 -257 -498
-611 -643 -49 -21 -91 -38 -93 -40 -6 -5 50 -181 77 -240 71 -155 149 -244
245 -275 90 -29 293 53 464 187 192 151 394 459 493 753 44 132 52 275 19 381
-38 126 -92 217 -230 389 -229 284 -302 408 -322 548 -36 244 111 543 407 830
72 70 173 159 225 197 87 65 124 89 277 184 62 39 77 60 97 139 20 75 20 165
1 273 -30 175 -127 399 -192 444 -17 12 -26 8 -93 -43z"/>
<path d="M4165 6079 c-291 -43 -547 -184 -631 -350 l-23 -47 25 -62 c28 -69
59 -197 69 -281 l7 -56 60 18 c125 39 218 16 218 -55 0 -41 -37 -98 -135 -206
-43 -47 -81 -96 -86 -108 -32 -83 -228 -1081 -313 -1592 -76 -452 -154 -1061
-159 -1230 -4 -122 56 -192 203 -240 80 -25 238 -44 305 -35 141 18 342 111
506 234 154 116 291 274 404 465 148 252 245 594 245 867 0 224 -53 382 -199
597 -24 35 -37 63 -31 67 23 14 176 258 225 360 202 415 248 910 114 1238 -93
230 -254 371 -468 411 -89 17 -238 19 -336 5z m213 -738 c79 -15 126 -86 157
-231 41 -195 -9 -445 -140 -699 -25 -48 -62 -107 -81 -130 -57 -67 -161 -130
-281 -172 -47 -16 -53 -16 -53 -2 0 23 76 452 111 628 37 185 126 565 138 585
14 26 78 34 149 21z m-172 -1729 c78 -96 130 -189 143 -259 12 -62 -11 -249
-44 -366 -68 -235 -206 -398 -393 -461 -73 -25 -172 -41 -172 -29 1 105 129
1027 146 1055 3 4 20 8 38 8 40 0 138 33 191 64 22 13 45 24 50 25 6 0 24 -16
41 -37z"/>
<path d="M3617 5133 c-16 -4 -43 -50 -34 -59 1 -2 15 12 30 31 15 19 27 34 25
34 -2 -1 -11 -3 -21 -6z"/>
<path d="M3532 5006 c-12 -14 -68 -52 -123 -86 -260 -160 -518 -397 -652 -600
-128 -194 -171 -313 -172 -475 l0 -100 111 -135 c155 -188 220 -289 259 -401
8 -21 40 -83 73 -138 33 -55 70 -129 83 -163 19 -49 25 -58 27 -38 42 348 146
1019 218 1400 61 326 143 640 190 733 18 33 15 34 -14 3z"/>
</g>
</svg>
